<svg width="373" height="254" viewBox="0 0 373 254" fill="none" xmlns="http://www.w3.org/2000/svg">
<rect x="0.470215" y="0.63089" width="372" height="253" rx="45" fill="white"/>
<mask id="mask0_433_392" style="mask-type:alpha" maskUnits="userSpaceOnUse" x="0" y="0" width="373" height="254">
<path d="M0.470215 45.6309C0.470215 20.7781 20.6174 0.63089 45.4702 0.63089H327.47C352.323 0.63089 372.47 20.7781 372.47 45.6309V208.631C372.47 233.484 352.323 253.631 327.47 253.631H45.4702C20.6174 253.631 0.470215 233.484 0.470215 208.631V45.6309Z" fill="white"/>
</mask>
<g mask="url(#mask0_433_392)">
</g>
<mask id="mask1_433_392" style="mask-type:alpha" maskUnits="userSpaceOnUse" x="0" y="0" width="373" height="254">
<path d="M0.470215 45.6309C0.470215 20.7781 20.6174 0.63089 45.4702 0.63089H327.47C352.323 0.63089 372.47 20.7781 372.47 45.6309V208.631C372.47 233.484 352.323 253.631 327.47 253.631H45.4702C20.6174 253.631 0.470215 233.484 0.470215 208.631V45.6309Z" fill="white"/>
</mask>
<g mask="url(#mask1_433_392)">
<path d="M-68.3086 259.656C-68.3086 277.163 -54.1165 291.355 -36.6097 291.355H168.376H373.363C390.869 291.355 405.061 277.163 405.061 259.656C405.061 242.149 390.869 227.957 373.363 227.957H-36.6097C-54.1165 227.957 -68.3086 242.149 -68.3086 259.656Z" fill="#471625"/>
<path d="M-38.5298 -3.67023C-38.5298 13.8366 -24.3377 28.0287 -6.83089 28.0287H198.155H403.141C420.648 28.0287 434.84 13.8366 434.84 -3.67023C434.84 -21.177 420.648 -35.3691 403.141 -35.3691H-6.83088C-24.3377 -35.3691 -38.5298 -21.177 -38.5298 -3.67023Z" fill="#471625"/>
<g opacity="0.35" filter="url(#filter0_f_433_392)">
<ellipse cx="-6.66193" cy="-34.105" rx="77.3981" ry="78.4548" fill="#E3D2E3"/>
</g>
<g opacity="0.35" filter="url(#filter1_f_433_392)">
<ellipse cx="349.868" cy="262.086" rx="77.3981" ry="78.4548" fill="#E3D2E3"/>
</g>
<rect x="55.8702" y="71.0309" width="19.2" height="19.2" fill="white" stroke="black" stroke-width="0.8"/>
<rect x="74.5367" y="71.0309" width="19.2" height="19.2" fill="white" stroke="black" stroke-width="0.8"/>
<rect x="93.2037" y="71.0309" width="19.2" height="19.2" fill="white" stroke="black" stroke-width="0.8"/>
<rect x="111.87" y="71.0309" width="19.2" height="19.2" fill="white" stroke="black" stroke-width="0.8"/>
<rect x="130.537" y="71.0309" width="19.2" height="19.2" fill="white" stroke="black" stroke-width="0.8"/>
<rect x="149.204" y="71.0309" width="19.2" height="19.2" fill="white" stroke="black" stroke-width="0.8"/>
<rect x="167.87" y="71.0309" width="19.2" height="19.2" fill="white" stroke="black" stroke-width="0.8"/>
<rect x="186.537" y="71.0309" width="19.2" height="19.2" fill="#643443" stroke="black" stroke-width="0.8"/>
<rect x="205.204" y="71.0309" width="19.2" height="19.2" fill="#643443" stroke="black" stroke-width="0.8"/>
<rect x="223.87" y="71.0309" width="19.2" height="19.2" fill="#643443" stroke="black" stroke-width="0.8"/>
<rect x="242.537" y="71.0309" width="19.2" height="19.2" fill="#643443" stroke="black" stroke-width="0.8"/>
<rect x="261.204" y="71.0309" width="19.2" height="19.2" fill="#643443" stroke="black" stroke-width="0.8"/>
<rect x="279.87" y="71.0309" width="19.2" height="19.2" fill="#643443" stroke="black" stroke-width="0.8"/>
<rect x="298.537" y="71.0309" width="19.2" height="19.2" fill="#643443" stroke="black" stroke-width="0.8"/>
<path d="M63.9217 78.0273V77.0412H66.1552V85.6309H65.0622V78.0273H63.9217Z" fill="black"/>
<path d="M82.9217 78.0273V77.0412H85.1552V85.6309H84.0622V78.0273H82.9217Z" fill="black"/>
<path d="M99.2068 81.247C99.2068 79.8847 99.4286 78.8233 99.8721 78.063C100.316 77.2947 101.092 76.9106 102.201 76.9106C103.302 76.9106 104.074 77.2947 104.517 78.063C104.961 78.8233 105.183 79.8847 105.183 81.247C105.183 82.633 104.961 83.7102 104.517 84.4785C104.074 85.2468 103.302 85.6309 102.201 85.6309C101.092 85.6309 100.316 85.2468 99.8721 84.4785C99.4286 83.7102 99.2068 82.633 99.2068 81.247ZM104.113 81.247C104.113 80.5579 104.066 79.9757 103.971 79.5005C103.884 79.0174 103.698 78.6293 103.413 78.3362C103.135 78.0432 102.731 77.8966 102.201 77.8966C101.662 77.8966 101.25 78.0432 100.965 78.3362C100.688 78.6293 100.502 79.0174 100.407 79.5005C100.32 79.9757 100.276 80.5579 100.276 81.247C100.276 81.9598 100.32 82.5578 100.407 83.0409C100.502 83.5241 100.688 83.9122 100.965 84.2052C101.25 84.4983 101.662 84.6448 102.201 84.6448C102.731 84.6448 103.135 84.4983 103.413 84.2052C103.698 83.9122 103.884 83.5241 103.971 83.0409C104.066 82.5578 104.113 81.9598 104.113 81.247Z" fill="black"/>
<path d="M137.207 81.247C137.207 79.8847 137.429 78.8233 137.872 78.063C138.316 77.2947 139.092 76.9106 140.201 76.9106C141.302 76.9106 142.074 77.2947 142.517 78.063C142.961 78.8233 143.183 79.8847 143.183 81.247C143.183 82.633 142.961 83.7102 142.517 84.4785C142.074 85.2468 141.302 85.6309 140.201 85.6309C139.092 85.6309 138.316 85.2468 137.872 84.4785C137.429 83.7102 137.207 82.633 137.207 81.247ZM142.113 81.247C142.113 80.5579 142.066 79.9757 141.971 79.5005C141.884 79.0174 141.698 78.6293 141.413 78.3362C141.135 78.0432 140.731 77.8966 140.201 77.8966C139.662 77.8966 139.25 78.0432 138.965 78.3362C138.688 78.6293 138.502 79.0174 138.407 79.5005C138.32 79.9757 138.276 80.5579 138.276 81.247C138.276 81.9598 138.32 82.5578 138.407 83.0409C138.502 83.5241 138.688 83.9122 138.965 84.2052C139.25 84.4983 139.662 84.6448 140.201 84.6448C140.731 84.6448 141.135 84.4983 141.413 84.2052C141.698 83.9122 141.884 83.5241 141.971 83.0409C142.066 82.5578 142.113 81.9598 142.113 81.247Z" fill="black"/>
<path d="M155.207 81.247C155.207 79.8847 155.429 78.8233 155.872 78.063C156.316 77.2947 157.092 76.9106 158.201 76.9106C159.302 76.9106 160.074 77.2947 160.517 78.063C160.961 78.8233 161.183 79.8847 161.183 81.247C161.183 82.633 160.961 83.7102 160.517 84.4785C160.074 85.2468 159.302 85.6309 158.201 85.6309C157.092 85.6309 156.316 85.2468 155.872 84.4785C155.429 83.7102 155.207 82.633 155.207 81.247ZM160.113 81.247C160.113 80.5579 160.066 79.9757 159.971 79.5005C159.884 79.0174 159.698 78.6293 159.413 78.3362C159.135 78.0432 158.731 77.8966 158.201 77.8966C157.662 77.8966 157.25 78.0432 156.965 78.3362C156.688 78.6293 156.502 79.0174 156.407 79.5005C156.32 79.9757 156.276 80.5579 156.276 81.247C156.276 81.9598 156.32 82.5578 156.407 83.0409C156.502 83.5241 156.688 83.9122 156.965 84.2052C157.25 84.4983 157.662 84.6448 158.201 84.6448C158.731 84.6448 159.135 84.4983 159.413 84.2052C159.698 83.9122 159.884 83.5241 159.971 83.0409C160.066 82.5578 160.113 81.9598 160.113 81.247Z" fill="black"/>
<path opacity="0.7" d="M193.207 81.247C193.207 79.8847 193.429 78.8233 193.872 78.063C194.316 77.2947 195.092 76.9106 196.201 76.9106C197.302 76.9106 198.074 77.2947 198.517 78.063C198.961 78.8233 199.183 79.8847 199.183 81.247C199.183 82.633 198.961 83.7102 198.517 84.4785C198.074 85.2468 197.302 85.6309 196.201 85.6309C195.092 85.6309 194.316 85.2468 193.872 84.4785C193.429 83.7102 193.207 82.633 193.207 81.247ZM198.113 81.247C198.113 80.5579 198.066 79.9757 197.971 79.5005C197.884 79.0174 197.698 78.6293 197.413 78.3362C197.135 78.0432 196.731 77.8966 196.201 77.8966C195.662 77.8966 195.25 78.0432 194.965 78.3362C194.688 78.6293 194.502 79.0174 194.407 79.5005C194.32 79.9757 194.276 80.5579 194.276 81.247C194.276 81.9598 194.32 82.5578 194.407 83.0409C194.502 83.5241 194.688 83.9122 194.965 84.2052C195.25 84.4983 195.662 84.6448 196.201 84.6448C196.731 84.6448 197.135 84.4983 197.413 84.2052C197.698 83.9122 197.884 83.5241 197.971 83.0409C198.066 82.5578 198.113 81.9598 198.113 81.247Z" fill="white"/>
<path opacity="0.7" d="M211.207 81.247C211.207 79.8847 211.429 78.8233 211.872 78.063C212.316 77.2947 213.092 76.9106 214.201 76.9106C215.302 76.9106 216.074 77.2947 216.517 78.063C216.961 78.8233 217.183 79.8847 217.183 81.247C217.183 82.633 216.961 83.7102 216.517 84.4785C216.074 85.2468 215.302 85.6309 214.201 85.6309C213.092 85.6309 212.316 85.2468 211.872 84.4785C211.429 83.7102 211.207 82.633 211.207 81.247ZM216.113 81.247C216.113 80.5579 216.066 79.9757 215.971 79.5005C215.884 79.0174 215.698 78.6293 215.413 78.3362C215.135 78.0432 214.731 77.8966 214.201 77.8966C213.662 77.8966 213.25 78.0432 212.965 78.3362C212.688 78.6293 212.502 79.0174 212.407 79.5005C212.32 79.9757 212.276 80.5579 212.276 81.247C212.276 81.9598 212.32 82.5578 212.407 83.0409C212.502 83.5241 212.688 83.9122 212.965 84.2052C213.25 84.4983 213.662 84.6448 214.201 84.6448C214.731 84.6448 215.135 84.4983 215.413 84.2052C215.698 83.9122 215.884 83.5241 215.971 83.0409C216.066 82.5578 216.113 81.9598 216.113 81.247Z" fill="white"/>
<path opacity="0.7" d="M249.207 81.247C249.207 79.8847 249.429 78.8233 249.872 78.063C250.316 77.2947 251.092 76.9106 252.201 76.9106C253.302 76.9106 254.074 77.2947 254.517 78.063C254.961 78.8233 255.183 79.8847 255.183 81.247C255.183 82.633 254.961 83.7102 254.517 84.4785C254.074 85.2468 253.302 85.6309 252.201 85.6309C251.092 85.6309 250.316 85.2468 249.872 84.4785C249.429 83.7102 249.207 82.633 249.207 81.247ZM254.113 81.247C254.113 80.5579 254.066 79.9757 253.971 79.5005C253.884 79.0174 253.698 78.6293 253.413 78.3362C253.135 78.0432 252.731 77.8966 252.201 77.8966C251.662 77.8966 251.25 78.0432 250.965 78.3362C250.688 78.6293 250.502 79.0174 250.407 79.5005C250.32 79.9757 250.276 80.5579 250.276 81.247C250.276 81.9598 250.32 82.5578 250.407 83.0409C250.502 83.5241 250.688 83.9122 250.965 84.2052C251.25 84.4983 251.662 84.6448 252.201 84.6448C252.731 84.6448 253.135 84.4983 253.413 84.2052C253.698 83.9122 253.884 83.5241 253.971 83.0409C254.066 82.5578 254.113 81.9598 254.113 81.247Z" fill="white"/>
<path opacity="0.7" d="M267.207 81.247C267.207 79.8847 267.429 78.8233 267.872 78.063C268.316 77.2947 269.092 76.9106 270.201 76.9106C271.302 76.9106 272.074 77.2947 272.517 78.063C272.961 78.8233 273.183 79.8847 273.183 81.247C273.183 82.633 272.961 83.7102 272.517 84.4785C272.074 85.2468 271.302 85.6309 270.201 85.6309C269.092 85.6309 268.316 85.2468 267.872 84.4785C267.429 83.7102 267.207 82.633 267.207 81.247ZM272.113 81.247C272.113 80.5579 272.066 79.9757 271.971 79.5005C271.884 79.0174 271.698 78.6293 271.413 78.3362C271.135 78.0432 270.731 77.8966 270.201 77.8966C269.662 77.8966 269.25 78.0432 268.965 78.3362C268.688 78.6293 268.502 79.0174 268.407 79.5005C268.32 79.9757 268.276 80.5579 268.276 81.247C268.276 81.9598 268.32 82.5578 268.407 83.0409C268.502 83.5241 268.688 83.9122 268.965 84.2052C269.25 84.4983 269.662 84.6448 270.201 84.6448C270.731 84.6448 271.135 84.4983 271.413 84.2052C271.698 83.9122 271.884 83.5241 271.971 83.0409C272.066 82.5578 272.113 81.9598 272.113 81.247Z" fill="white"/>
<path opacity="0.7" d="M305.207 81.247C305.207 79.8847 305.429 78.8233 305.872 78.063C306.316 77.2947 307.092 76.9106 308.201 76.9106C309.302 76.9106 310.074 77.2947 310.517 78.063C310.961 78.8233 311.183 79.8847 311.183 81.247C311.183 82.633 310.961 83.7102 310.517 84.4785C310.074 85.2468 309.302 85.6309 308.201 85.6309C307.092 85.6309 306.316 85.2468 305.872 84.4785C305.429 83.7102 305.207 82.633 305.207 81.247ZM310.113 81.247C310.113 80.5579 310.066 79.9757 309.971 79.5005C309.884 79.0174 309.698 78.6293 309.413 78.3362C309.135 78.0432 308.731 77.8966 308.201 77.8966C307.662 77.8966 307.25 78.0432 306.965 78.3362C306.688 78.6293 306.502 79.0174 306.407 79.5005C306.32 79.9757 306.276 80.5579 306.276 81.247C306.276 81.9598 306.32 82.5578 306.407 83.0409C306.502 83.5241 306.688 83.9122 306.965 84.2052C307.25 84.4983 307.662 84.6448 308.201 84.6448C308.731 84.6448 309.135 84.4983 309.413 84.2052C309.698 83.9122 309.884 83.5241 309.971 83.0409C310.066 82.5578 310.113 81.9598 310.113 81.247Z" fill="white"/>
<path d="M119.922 78.0273V77.0412H122.155V85.6309H121.062V78.0273H119.922Z" fill="black"/>
<path d="M175.922 78.0273V77.0412H178.155V85.6309H177.062V78.0273H175.922Z" fill="black"/>
<rect x="185.87" y="126.031" width="19.2" height="19.2" fill="white" stroke="black" stroke-width="0.8"/>
<rect x="204.537" y="126.031" width="19.2" height="19.2" fill="white" stroke="black" stroke-width="0.8"/>
<rect x="223.204" y="126.031" width="19.2" height="19.2" fill="white" stroke="black" stroke-width="0.8"/>
<rect x="241.87" y="126.031" width="19.2" height="19.2" fill="white" stroke="black" stroke-width="0.8"/>
<rect x="260.537" y="126.031" width="19.2" height="19.2" fill="white" stroke="black" stroke-width="0.8"/>
<rect x="279.204" y="126.031" width="19.2" height="19.2" fill="white" stroke="black" stroke-width="0.8"/>
<rect x="297.87" y="126.031" width="19.2" height="19.2" fill="white" stroke="black" stroke-width="0.8"/>
<path d="M192.207 136.247C192.207 134.885 192.429 133.823 192.872 133.063C193.316 132.295 194.092 131.911 195.201 131.911C196.302 131.911 197.074 132.295 197.517 133.063C197.961 133.823 198.183 134.885 198.183 136.247C198.183 137.633 197.961 138.71 197.517 139.478C197.074 140.247 196.302 140.631 195.201 140.631C194.092 140.631 193.316 140.247 192.872 139.478C192.429 138.71 192.207 137.633 192.207 136.247ZM197.113 136.247C197.113 135.558 197.066 134.976 196.971 134.501C196.884 134.017 196.698 133.629 196.413 133.336C196.135 133.043 195.731 132.897 195.201 132.897C194.662 132.897 194.25 133.043 193.965 133.336C193.688 133.629 193.502 134.017 193.407 134.501C193.32 134.976 193.276 135.558 193.276 136.247C193.276 136.96 193.32 137.558 193.407 138.041C193.502 138.524 193.688 138.912 193.965 139.205C194.25 139.498 194.662 139.645 195.201 139.645C195.731 139.645 196.135 139.498 196.413 139.205C196.698 138.912 196.884 138.524 196.971 138.041C197.066 137.558 197.113 136.96 197.113 136.247Z" fill="black"/>
<path d="M212.922 133.027V132.041H215.155V140.631H214.062V133.027H212.922Z" fill="black"/>
<path d="M230.922 133.027V132.041H233.155V140.631H232.062V133.027H230.922Z" fill="black"/>
<path d="M267.207 136.247C267.207 134.885 267.429 133.823 267.872 133.063C268.316 132.295 269.092 131.911 270.201 131.911C271.302 131.911 272.074 132.295 272.517 133.063C272.961 133.823 273.183 134.885 273.183 136.247C273.183 137.633 272.961 138.71 272.517 139.478C272.074 140.247 271.302 140.631 270.201 140.631C269.092 140.631 268.316 140.247 267.872 139.478C267.429 138.71 267.207 137.633 267.207 136.247ZM272.113 136.247C272.113 135.558 272.066 134.976 271.971 134.501C271.884 134.017 271.698 133.629 271.413 133.336C271.135 133.043 270.731 132.897 270.201 132.897C269.662 132.897 269.25 133.043 268.965 133.336C268.688 133.629 268.502 134.017 268.407 134.501C268.32 134.976 268.276 135.558 268.276 136.247C268.276 136.96 268.32 137.558 268.407 138.041C268.502 138.524 268.688 138.912 268.965 139.205C269.25 139.498 269.662 139.645 270.201 139.645C270.731 139.645 271.135 139.498 271.413 139.205C271.698 138.912 271.884 138.524 271.971 138.041C272.066 137.558 272.113 136.96 272.113 136.247Z" fill="black"/>
<path d="M285.207 136.247C285.207 134.885 285.429 133.823 285.872 133.063C286.316 132.295 287.092 131.911 288.201 131.911C289.302 131.911 290.074 132.295 290.517 133.063C290.961 133.823 291.183 134.885 291.183 136.247C291.183 137.633 290.961 138.71 290.517 139.478C290.074 140.247 289.302 140.631 288.201 140.631C287.092 140.631 286.316 140.247 285.872 139.478C285.429 138.71 285.207 137.633 285.207 136.247ZM290.113 136.247C290.113 135.558 290.066 134.976 289.971 134.501C289.884 134.017 289.698 133.629 289.413 133.336C289.135 133.043 288.731 132.897 288.201 132.897C287.662 132.897 287.25 133.043 286.965 133.336C286.688 133.629 286.502 134.017 286.407 134.501C286.32 134.976 286.276 135.558 286.276 136.247C286.276 136.96 286.32 137.558 286.407 138.041C286.502 138.524 286.688 138.912 286.965 139.205C287.25 139.498 287.662 139.645 288.201 139.645C288.731 139.645 289.135 139.498 289.413 139.205C289.698 138.912 289.884 138.524 289.971 138.041C290.066 137.558 290.113 136.96 290.113 136.247Z" fill="black"/>
<path d="M249.922 133.027V132.041H252.155V140.631H251.062V133.027H249.922Z" fill="black"/>
<path d="M305.922 133.027V132.041H308.155V140.631H307.062V133.027H305.922Z" fill="black"/>
<path opacity="0.7" d="M231.922 78.0273V77.0412H234.155V85.6309H233.062V78.0273H231.922Z" fill="white"/>
<path opacity="0.7" d="M287.922 78.0273V77.0412H290.155V85.6309H289.062V78.0273H287.922Z" fill="white"/>
<rect x="185.87" y="181.031" width="19.2" height="19.2" fill="#643443" stroke="black" stroke-width="0.8"/>
<rect x="204.537" y="181.031" width="19.2" height="19.2" fill="#643443" stroke="black" stroke-width="0.8"/>
<rect x="223.204" y="181.031" width="19.2" height="19.2" fill="#643443" stroke="black" stroke-width="0.8"/>
<rect x="241.87" y="181.031" width="19.2" height="19.2" fill="#643443" stroke="black" stroke-width="0.8"/>
<rect x="260.537" y="181.031" width="19.2" height="19.2" fill="#643443" stroke="black" stroke-width="0.8"/>
<rect x="279.204" y="181.031" width="19.2" height="19.2" fill="#643443" stroke="black" stroke-width="0.8"/>
<rect x="297.87" y="181.031" width="19.2" height="19.2" fill="#643443" stroke="black" stroke-width="0.8"/>
<path opacity="0.7" d="M192.54 191.247C192.54 189.885 192.762 188.823 193.206 188.063C193.649 187.295 194.425 186.911 195.534 186.911C196.635 186.911 197.407 187.295 197.851 188.063C198.294 188.823 198.516 189.885 198.516 191.247C198.516 192.633 198.294 193.71 197.851 194.478C197.407 195.247 196.635 195.631 195.534 195.631C194.425 195.631 193.649 195.247 193.206 194.478C192.762 193.71 192.54 192.633 192.54 191.247ZM197.447 191.247C197.447 190.558 197.399 189.976 197.304 189.501C197.217 189.017 197.031 188.629 196.746 188.336C196.469 188.043 196.065 187.897 195.534 187.897C194.996 187.897 194.584 188.043 194.299 188.336C194.021 188.629 193.835 189.017 193.74 189.501C193.653 189.976 193.61 190.558 193.61 191.247C193.61 191.96 193.653 192.558 193.74 193.041C193.835 193.524 194.021 193.912 194.299 194.205C194.584 194.498 194.996 194.645 195.534 194.645C196.065 194.645 196.469 194.498 196.746 194.205C197.031 193.912 197.217 193.524 197.304 193.041C197.399 192.558 197.447 191.96 197.447 191.247Z" fill="white"/>
<path opacity="0.7" d="M210.54 191.247C210.54 189.885 210.762 188.823 211.206 188.063C211.649 187.295 212.425 186.911 213.534 186.911C214.635 186.911 215.407 187.295 215.851 188.063C216.294 188.823 216.516 189.885 216.516 191.247C216.516 192.633 216.294 193.71 215.851 194.478C215.407 195.247 214.635 195.631 213.534 195.631C212.425 195.631 211.649 195.247 211.206 194.478C210.762 193.71 210.54 192.633 210.54 191.247ZM215.447 191.247C215.447 190.558 215.399 189.976 215.304 189.501C215.217 189.017 215.031 188.629 214.746 188.336C214.469 188.043 214.065 187.897 213.534 187.897C212.996 187.897 212.584 188.043 212.299 188.336C212.021 188.629 211.835 189.017 211.74 189.501C211.653 189.976 211.61 190.558 211.61 191.247C211.61 191.96 211.653 192.558 211.74 193.041C211.835 193.524 212.021 193.912 212.299 194.205C212.584 194.498 212.996 194.645 213.534 194.645C214.065 194.645 214.469 194.498 214.746 194.205C215.031 193.912 215.217 193.524 215.304 193.041C215.399 192.558 215.447 191.96 215.447 191.247Z" fill="white"/>
<path opacity="0.7" d="M248.54 191.247C248.54 189.885 248.762 188.823 249.206 188.063C249.649 187.295 250.425 186.911 251.534 186.911C252.635 186.911 253.407 187.295 253.851 188.063C254.294 188.823 254.516 189.885 254.516 191.247C254.516 192.633 254.294 193.71 253.851 194.478C253.407 195.247 252.635 195.631 251.534 195.631C250.425 195.631 249.649 195.247 249.206 194.478C248.762 193.71 248.54 192.633 248.54 191.247ZM253.447 191.247C253.447 190.558 253.399 189.976 253.304 189.501C253.217 189.017 253.031 188.629 252.746 188.336C252.469 188.043 252.065 187.897 251.534 187.897C250.996 187.897 250.584 188.043 250.299 188.336C250.021 188.629 249.835 189.017 249.74 189.501C249.653 189.976 249.61 190.558 249.61 191.247C249.61 191.96 249.653 192.558 249.74 193.041C249.835 193.524 250.021 193.912 250.299 194.205C250.584 194.498 250.996 194.645 251.534 194.645C252.065 194.645 252.469 194.498 252.746 194.205C253.031 193.912 253.217 193.524 253.304 193.041C253.399 192.558 253.447 191.96 253.447 191.247Z" fill="white"/>
<path opacity="0.7" d="M266.54 191.247C266.54 189.885 266.762 188.823 267.206 188.063C267.649 187.295 268.425 186.911 269.534 186.911C270.635 186.911 271.407 187.295 271.851 188.063C272.294 188.823 272.516 189.885 272.516 191.247C272.516 192.633 272.294 193.71 271.851 194.478C271.407 195.247 270.635 195.631 269.534 195.631C268.425 195.631 267.649 195.247 267.206 194.478C266.762 193.71 266.54 192.633 266.54 191.247ZM271.447 191.247C271.447 190.558 271.399 189.976 271.304 189.501C271.217 189.017 271.031 188.629 270.746 188.336C270.469 188.043 270.065 187.897 269.534 187.897C268.996 187.897 268.584 188.043 268.299 188.336C268.021 188.629 267.835 189.017 267.74 189.501C267.653 189.976 267.61 190.558 267.61 191.247C267.61 191.96 267.653 192.558 267.74 193.041C267.835 193.524 268.021 193.912 268.299 194.205C268.584 194.498 268.996 194.645 269.534 194.645C270.065 194.645 270.469 194.498 270.746 194.205C271.031 193.912 271.217 193.524 271.304 193.041C271.399 192.558 271.447 191.96 271.447 191.247Z" fill="white"/>
<path opacity="0.7" d="M304.54 191.247C304.54 189.885 304.762 188.823 305.206 188.063C305.649 187.295 306.425 186.911 307.534 186.911C308.635 186.911 309.407 187.295 309.851 188.063C310.294 188.823 310.516 189.885 310.516 191.247C310.516 192.633 310.294 193.71 309.851 194.478C309.407 195.247 308.635 195.631 307.534 195.631C306.425 195.631 305.649 195.247 305.206 194.478C304.762 193.71 304.54 192.633 304.54 191.247ZM309.447 191.247C309.447 190.558 309.399 189.976 309.304 189.501C309.217 189.017 309.031 188.629 308.746 188.336C308.469 188.043 308.065 187.897 307.534 187.897C306.996 187.897 306.584 188.043 306.299 188.336C306.021 188.629 305.835 189.017 305.74 189.501C305.653 189.976 305.61 190.558 305.61 191.247C305.61 191.96 305.653 192.558 305.74 193.041C305.835 193.524 306.021 193.912 306.299 194.205C306.584 194.498 306.996 194.645 307.534 194.645C308.065 194.645 308.469 194.498 308.746 194.205C309.031 193.912 309.217 193.524 309.304 193.041C309.399 192.558 309.447 191.96 309.447 191.247Z" fill="white"/>
<path opacity="0.7" d="M231.255 188.027V187.041H233.489V195.631H232.396V188.027H231.255Z" fill="white"/>
<path opacity="0.7" d="M287.255 188.027V187.041H289.489V195.631H288.396V188.027H287.255Z" fill="white"/>
<rect x="54.8702" y="126.031" width="19.2" height="19.2" fill="#643443" stroke="black" stroke-width="0.8"/>
<rect x="73.5367" y="126.031" width="19.2" height="19.2" fill="#643443" stroke="black" stroke-width="0.8"/>
<rect x="92.2037" y="126.031" width="19.2" height="19.2" fill="#643443" stroke="black" stroke-width="0.8"/>
<rect x="110.87" y="126.031" width="19.2" height="19.2" fill="#643443" stroke="black" stroke-width="0.8"/>
<rect x="129.537" y="126.031" width="19.2" height="19.2" fill="#643443" stroke="black" stroke-width="0.8"/>
<rect x="148.204" y="126.031" width="19.2" height="19.2" fill="#643443" stroke="black" stroke-width="0.8"/>
<rect x="166.87" y="126.031" width="19.2" height="19.2" fill="#643443" stroke="black" stroke-width="0.8"/>
<path opacity="0.7" d="M62.9217 133.027V132.041H65.1552V140.631H64.0622V133.027H62.9217Z" fill="white"/>
<path opacity="0.7" d="M79.5403 136.247C79.5403 134.885 79.7621 133.823 80.2056 133.063C80.6492 132.295 81.4254 131.911 82.5342 131.911C83.6351 131.911 84.4074 132.295 84.8509 133.063C85.2945 133.823 85.5162 134.885 85.5162 136.247C85.5162 137.633 85.2945 138.71 84.8509 139.478C84.4074 140.247 83.6351 140.631 82.5342 140.631C81.4254 140.631 80.6492 140.247 80.2056 139.478C79.7621 138.71 79.5403 137.633 79.5403 136.247ZM84.447 136.247C84.447 135.558 84.3995 134.976 84.3044 134.501C84.2173 134.017 84.0312 133.629 83.746 133.336C83.4688 133.043 83.0649 132.897 82.5342 132.897C81.9956 132.897 81.5838 133.043 81.2986 133.336C81.0214 133.629 80.8353 134.017 80.7402 134.501C80.6531 134.976 80.6096 135.558 80.6096 136.247C80.6096 136.96 80.6531 137.558 80.7402 138.041C80.8353 138.524 81.0214 138.912 81.2986 139.205C81.5838 139.498 81.9956 139.645 82.5342 139.645C83.0649 139.645 83.4688 139.498 83.746 139.205C84.0312 138.912 84.2173 138.524 84.3044 138.041C84.3995 137.558 84.447 136.96 84.447 136.247Z" fill="white"/>
<path opacity="0.7" d="M117.54 136.247C117.54 134.885 117.762 133.823 118.206 133.063C118.649 132.295 119.425 131.911 120.534 131.911C121.635 131.911 122.407 132.295 122.851 133.063C123.294 133.823 123.516 134.885 123.516 136.247C123.516 137.633 123.294 138.71 122.851 139.478C122.407 140.247 121.635 140.631 120.534 140.631C119.425 140.631 118.649 140.247 118.206 139.478C117.762 138.71 117.54 137.633 117.54 136.247ZM122.447 136.247C122.447 135.558 122.399 134.976 122.304 134.501C122.217 134.017 122.031 133.629 121.746 133.336C121.469 133.043 121.065 132.897 120.534 132.897C119.996 132.897 119.584 133.043 119.299 133.336C119.021 133.629 118.835 134.017 118.74 134.501C118.653 134.976 118.61 135.558 118.61 136.247C118.61 136.96 118.653 137.558 118.74 138.041C118.835 138.524 119.021 138.912 119.299 139.205C119.584 139.498 119.996 139.645 120.534 139.645C121.065 139.645 121.469 139.498 121.746 139.205C122.031 138.912 122.217 138.524 122.304 138.041C122.399 137.558 122.447 136.96 122.447 136.247Z" fill="white"/>
<path opacity="0.7" d="M136.922 133.027V132.041H139.155V140.631H138.062V133.027H136.922Z" fill="white"/>
<path opacity="0.7" d="M174.922 133.027V132.041H177.155V140.631H176.062V133.027H174.922Z" fill="white"/>
<path opacity="0.7" d="M98.2068 136.247C98.2068 134.885 98.4286 133.823 98.8721 133.063C99.3157 132.295 100.092 131.911 101.201 131.911C102.302 131.911 103.074 132.295 103.517 133.063C103.961 133.823 104.183 134.885 104.183 136.247C104.183 137.633 103.961 138.71 103.517 139.478C103.074 140.247 102.302 140.631 101.201 140.631C100.092 140.631 99.3157 140.247 98.8721 139.478C98.4286 138.71 98.2068 137.633 98.2068 136.247ZM103.113 136.247C103.113 135.558 103.066 134.976 102.971 134.501C102.884 134.017 102.698 133.629 102.413 133.336C102.135 133.043 101.731 132.897 101.201 132.897C100.662 132.897 100.25 133.043 99.9651 133.336C99.6879 133.629 99.5018 134.017 99.4067 134.501C99.3196 134.976 99.2761 135.558 99.2761 136.247C99.2761 136.96 99.3196 137.558 99.4067 138.041C99.5018 138.524 99.6879 138.912 99.9651 139.205C100.25 139.498 100.662 139.645 101.201 139.645C101.731 139.645 102.135 139.498 102.413 139.205C102.698 138.912 102.884 138.524 102.971 138.041C103.066 137.558 103.113 136.96 103.113 136.247Z" fill="white"/>
<path opacity="0.7" d="M154.207 136.247C154.207 134.885 154.429 133.823 154.872 133.063C155.316 132.295 156.092 131.911 157.201 131.911C158.302 131.911 159.074 132.295 159.517 133.063C159.961 133.823 160.183 134.885 160.183 136.247C160.183 137.633 159.961 138.71 159.517 139.478C159.074 140.247 158.302 140.631 157.201 140.631C156.092 140.631 155.316 140.247 154.872 139.478C154.429 138.71 154.207 137.633 154.207 136.247ZM159.113 136.247C159.113 135.558 159.066 134.976 158.971 134.501C158.884 134.017 158.698 133.629 158.413 133.336C158.135 133.043 157.731 132.897 157.201 132.897C156.662 132.897 156.25 133.043 155.965 133.336C155.688 133.629 155.502 134.017 155.407 134.501C155.32 134.976 155.276 135.558 155.276 136.247C155.276 136.96 155.32 137.558 155.407 138.041C155.502 138.524 155.688 138.912 155.965 139.205C156.25 139.498 156.662 139.645 157.201 139.645C157.731 139.645 158.135 139.498 158.413 139.205C158.698 138.912 158.884 138.524 158.971 138.041C159.066 137.558 159.113 136.96 159.113 136.247Z" fill="white"/>
<rect x="54.8702" y="181.031" width="19.2" height="19.2" fill="#643443" stroke="black" stroke-width="0.8"/>
<rect x="73.5367" y="181.031" width="19.2" height="19.2" fill="#643443" stroke="black" stroke-width="0.8"/>
<rect x="92.2037" y="181.031" width="19.2" height="19.2" fill="#643443" stroke="black" stroke-width="0.8"/>
<rect x="110.87" y="181.031" width="19.2" height="19.2" fill="#643443" stroke="black" stroke-width="0.8"/>
<rect x="129.537" y="181.031" width="19.2" height="19.2" fill="#643443" stroke="black" stroke-width="0.8"/>
<rect x="148.204" y="181.031" width="19.2" height="19.2" fill="#643443" stroke="black" stroke-width="0.8"/>
<rect x="166.87" y="181.031" width="19.2" height="19.2" fill="#643443" stroke="black" stroke-width="0.8"/>
<path opacity="0.7" d="M62.9217 188.027V187.041H65.1552V195.631H64.0622V188.027H62.9217Z" fill="white"/>
<path opacity="0.7" d="M79.5403 191.247C79.5403 189.885 79.7621 188.823 80.2056 188.063C80.6492 187.295 81.4254 186.911 82.5342 186.911C83.6351 186.911 84.4074 187.295 84.8509 188.063C85.2945 188.823 85.5162 189.885 85.5162 191.247C85.5162 192.633 85.2945 193.71 84.8509 194.478C84.4074 195.247 83.6351 195.631 82.5342 195.631C81.4254 195.631 80.6492 195.247 80.2056 194.478C79.7621 193.71 79.5403 192.633 79.5403 191.247ZM84.447 191.247C84.447 190.558 84.3995 189.976 84.3044 189.501C84.2173 189.017 84.0312 188.629 83.746 188.336C83.4688 188.043 83.0649 187.897 82.5342 187.897C81.9956 187.897 81.5838 188.043 81.2986 188.336C81.0214 188.629 80.8353 189.017 80.7402 189.501C80.6531 189.976 80.6096 190.558 80.6096 191.247C80.6096 191.96 80.6531 192.558 80.7402 193.041C80.8353 193.524 81.0214 193.912 81.2986 194.205C81.5838 194.498 81.9956 194.645 82.5342 194.645C83.0649 194.645 83.4688 194.498 83.746 194.205C84.0312 193.912 84.2173 193.524 84.3044 193.041C84.3995 192.558 84.447 191.96 84.447 191.247Z" fill="white"/>
<path opacity="0.7" d="M117.54 191.247C117.54 189.885 117.762 188.823 118.206 188.063C118.649 187.295 119.425 186.911 120.534 186.911C121.635 186.911 122.407 187.295 122.851 188.063C123.294 188.823 123.516 189.885 123.516 191.247C123.516 192.633 123.294 193.71 122.851 194.478C122.407 195.247 121.635 195.631 120.534 195.631C119.425 195.631 118.649 195.247 118.206 194.478C117.762 193.71 117.54 192.633 117.54 191.247ZM122.447 191.247C122.447 190.558 122.399 189.976 122.304 189.501C122.217 189.017 122.031 188.629 121.746 188.336C121.469 188.043 121.065 187.897 120.534 187.897C119.996 187.897 119.584 188.043 119.299 188.336C119.021 188.629 118.835 189.017 118.74 189.501C118.653 189.976 118.61 190.558 118.61 191.247C118.61 191.96 118.653 192.558 118.74 193.041C118.835 193.524 119.021 193.912 119.299 194.205C119.584 194.498 119.996 194.645 120.534 194.645C121.065 194.645 121.469 194.498 121.746 194.205C122.031 193.912 122.217 193.524 122.304 193.041C122.399 192.558 122.447 191.96 122.447 191.247Z" fill="white"/>
<path opacity="0.7" d="M136.922 188.027V187.041H139.155V195.631H138.062V188.027H136.922Z" fill="white"/>
<path opacity="0.7" d="M174.922 188.027V187.041H177.155V195.631H176.062V188.027H174.922Z" fill="white"/>
<path opacity="0.7" d="M98.2068 191.247C98.2068 189.885 98.4286 188.823 98.8721 188.063C99.3157 187.295 100.092 186.911 101.201 186.911C102.302 186.911 103.074 187.295 103.517 188.063C103.961 188.823 104.183 189.885 104.183 191.247C104.183 192.633 103.961 193.71 103.517 194.478C103.074 195.247 102.302 195.631 101.201 195.631C100.092 195.631 99.3157 195.247 98.8721 194.478C98.4286 193.71 98.2068 192.633 98.2068 191.247ZM103.113 191.247C103.113 190.558 103.066 189.976 102.971 189.501C102.884 189.017 102.698 188.629 102.413 188.336C102.135 188.043 101.731 187.897 101.201 187.897C100.662 187.897 100.25 188.043 99.9651 188.336C99.6879 188.629 99.5018 189.017 99.4067 189.501C99.3196 189.976 99.2761 190.558 99.2761 191.247C99.2761 191.96 99.3196 192.558 99.4067 193.041C99.5018 193.524 99.6879 193.912 99.9651 194.205C100.25 194.498 100.662 194.645 101.201 194.645C101.731 194.645 102.135 194.498 102.413 194.205C102.698 193.912 102.884 193.524 102.971 193.041C103.066 192.558 103.113 191.96 103.113 191.247Z" fill="white"/>
<path opacity="0.7" d="M154.207 191.247C154.207 189.885 154.429 188.823 154.872 188.063C155.316 187.295 156.092 186.911 157.201 186.911C158.302 186.911 159.074 187.295 159.517 188.063C159.961 188.823 160.183 189.885 160.183 191.247C160.183 192.633 159.961 193.71 159.517 194.478C159.074 195.247 158.302 195.631 157.201 195.631C156.092 195.631 155.316 195.247 154.872 194.478C154.429 193.71 154.207 192.633 154.207 191.247ZM159.113 191.247C159.113 190.558 159.066 189.976 158.971 189.501C158.884 189.017 158.698 188.629 158.413 188.336C158.135 188.043 157.731 187.897 157.201 187.897C156.662 187.897 156.25 188.043 155.965 188.336C155.688 188.629 155.502 189.017 155.407 189.501C155.32 189.976 155.276 190.558 155.276 191.247C155.276 191.96 155.32 192.558 155.407 193.041C155.502 193.524 155.688 193.912 155.965 194.205C156.25 194.498 156.662 194.645 157.201 194.645C157.731 194.645 158.135 194.498 158.413 194.205C158.698 193.912 158.884 193.524 158.971 193.041C159.066 192.558 159.113 191.96 159.113 191.247Z" fill="white"/>
<g opacity="0.9">
<path d="M166.672 53.2359C166.672 54.1059 166.372 54.8309 165.772 55.4109C165.182 55.9809 164.277 56.2659 163.057 56.2659H161.047V60.6309H159.682V50.1759H163.057C164.237 50.1759 165.132 50.4609 165.742 51.0309C166.362 51.6009 166.672 52.3359 166.672 53.2359ZM163.057 55.1409C163.817 55.1409 164.377 54.9759 164.737 54.6459C165.097 54.3159 165.277 53.8459 165.277 53.2359C165.277 51.9459 164.537 51.3009 163.057 51.3009H161.047V55.1409H163.057ZM167.859 56.4909C167.859 55.6509 168.029 54.9159 168.369 54.2859C168.709 53.6459 169.174 53.1509 169.764 52.8009C170.364 52.4509 171.029 52.2759 171.759 52.2759C172.479 52.2759 173.104 52.4309 173.634 52.7409C174.164 53.0509 174.559 53.4409 174.819 53.9109V52.4109H176.199V60.6309H174.819V59.1009C174.549 59.5809 174.144 59.9809 173.604 60.3009C173.074 60.6109 172.454 60.7659 171.744 60.7659C171.014 60.7659 170.354 60.5859 169.764 60.2259C169.174 59.8659 168.709 59.3609 168.369 58.7109C168.029 58.0609 167.859 57.3209 167.859 56.4909ZM174.819 56.5059C174.819 55.8859 174.694 55.3459 174.444 54.8859C174.194 54.4259 173.854 54.0759 173.424 53.8359C173.004 53.5859 172.539 53.4609 172.029 53.4609C171.519 53.4609 171.054 53.5809 170.634 53.8209C170.214 54.0609 169.879 54.4109 169.629 54.8709C169.379 55.3309 169.254 55.8709 169.254 56.4909C169.254 57.1209 169.379 57.6709 169.629 58.1409C169.879 58.6009 170.214 58.9559 170.634 59.2059C171.054 59.4459 171.519 59.5659 172.029 59.5659C172.539 59.5659 173.004 59.4459 173.424 59.2059C173.854 58.9559 174.194 58.6009 174.444 58.1409C174.694 57.6709 174.819 57.1259 174.819 56.5059ZM179.871 53.7459C180.111 53.2759 180.451 52.9109 180.891 52.6509C181.341 52.3909 181.886 52.2609 182.526 52.2609V53.6709H182.166C180.636 53.6709 179.871 54.5009 179.871 56.1609V60.6309H178.506V52.4109H179.871V53.7459ZM191.601 56.2059C191.601 56.4659 191.586 56.7409 191.556 57.0309H184.986C185.036 57.8409 185.311 58.4759 185.811 58.9359C186.321 59.3859 186.936 59.6109 187.656 59.6109C188.246 59.6109 188.736 59.4759 189.126 59.2059C189.526 58.9259 189.806 58.5559 189.966 58.0959H191.436C191.216 58.8859 190.776 59.5309 190.116 60.0309C189.456 60.5209 188.636 60.7659 187.656 60.7659C186.876 60.7659 186.176 60.5909 185.556 60.2409C184.946 59.8909 184.466 59.3959 184.116 58.7559C183.766 58.1059 183.591 57.3559 183.591 56.5059C183.591 55.6559 183.761 54.9109 184.101 54.2709C184.441 53.6309 184.916 53.1409 185.526 52.8009C186.146 52.4509 186.856 52.2759 187.656 52.2759C188.436 52.2759 189.126 52.4459 189.726 52.7859C190.326 53.1259 190.786 53.5959 191.106 54.1959C191.436 54.7859 191.601 55.4559 191.601 56.2059ZM190.191 55.9209C190.191 55.4009 190.076 54.9559 189.846 54.5859C189.616 54.2059 189.301 53.9209 188.901 53.7309C188.511 53.5309 188.076 53.4309 187.596 53.4309C186.906 53.4309 186.316 53.6509 185.826 54.0909C185.346 54.5309 185.071 55.1409 185.001 55.9209H190.191ZM197.408 52.2609C198.408 52.2609 199.218 52.5659 199.838 53.1759C200.458 53.7759 200.768 54.6459 200.768 55.7859V60.6309H199.418V55.9809C199.418 55.1609 199.213 54.5359 198.803 54.1059C198.393 53.6659 197.833 53.4459 197.123 53.4459C196.403 53.4459 195.828 53.6709 195.398 54.1209C194.978 54.5709 194.768 55.2259 194.768 56.0859V60.6309H193.403V52.4109H194.768V53.5809C195.038 53.1609 195.403 52.8359 195.863 52.6059C196.333 52.3759 196.848 52.2609 197.408 52.2609ZM204.663 53.5359V58.3809C204.663 58.7809 204.748 59.0659 204.918 59.2359C205.088 59.3959 205.383 59.4759 205.803 59.4759H206.808V60.6309H205.578C204.818 60.6309 204.248 60.4559 203.868 60.1059C203.488 59.7559 203.298 59.1809 203.298 58.3809V53.5359H202.233V52.4109H203.298V50.3409H204.663V52.4109H206.808V53.5359H204.663ZM218.641 58.3059H214.081L213.241 60.6309H211.801L215.581 50.2359H217.156L220.921 60.6309H219.481L218.641 58.3059ZM218.251 57.1959L216.361 51.9159L214.471 57.1959H218.251Z" fill="#4F374A"/>
<path d="M166.672 53.2359C166.672 54.1059 166.372 54.8309 165.772 55.4109C165.182 55.9809 164.277 56.2659 163.057 56.2659H161.047V60.6309H159.682V50.1759H163.057C164.237 50.1759 165.132 50.4609 165.742 51.0309C166.362 51.6009 166.672 52.3359 166.672 53.2359ZM163.057 55.1409C163.817 55.1409 164.377 54.9759 164.737 54.6459C165.097 54.3159 165.277 53.8459 165.277 53.2359C165.277 51.9459 164.537 51.3009 163.057 51.3009H161.047V55.1409H163.057ZM167.859 56.4909C167.859 55.6509 168.029 54.9159 168.369 54.2859C168.709 53.6459 169.174 53.1509 169.764 52.8009C170.364 52.4509 171.029 52.2759 171.759 52.2759C172.479 52.2759 173.104 52.4309 173.634 52.7409C174.164 53.0509 174.559 53.4409 174.819 53.9109V52.4109H176.199V60.6309H174.819V59.1009C174.549 59.5809 174.144 59.9809 173.604 60.3009C173.074 60.6109 172.454 60.7659 171.744 60.7659C171.014 60.7659 170.354 60.5859 169.764 60.2259C169.174 59.8659 168.709 59.3609 168.369 58.7109C168.029 58.0609 167.859 57.3209 167.859 56.4909ZM174.819 56.5059C174.819 55.8859 174.694 55.3459 174.444 54.8859C174.194 54.4259 173.854 54.0759 173.424 53.8359C173.004 53.5859 172.539 53.4609 172.029 53.4609C171.519 53.4609 171.054 53.5809 170.634 53.8209C170.214 54.0609 169.879 54.4109 169.629 54.8709C169.379 55.3309 169.254 55.8709 169.254 56.4909C169.254 57.1209 169.379 57.6709 169.629 58.1409C169.879 58.6009 170.214 58.9559 170.634 59.2059C171.054 59.4459 171.519 59.5659 172.029 59.5659C172.539 59.5659 173.004 59.4459 173.424 59.2059C173.854 58.9559 174.194 58.6009 174.444 58.1409C174.694 57.6709 174.819 57.1259 174.819 56.5059ZM179.871 53.7459C180.111 53.2759 180.451 52.9109 180.891 52.6509C181.341 52.3909 181.886 52.2609 182.526 52.2609V53.6709H182.166C180.636 53.6709 179.871 54.5009 179.871 56.1609V60.6309H178.506V52.4109H179.871V53.7459ZM191.601 56.2059C191.601 56.4659 191.586 56.7409 191.556 57.0309H184.986C185.036 57.8409 185.311 58.4759 185.811 58.9359C186.321 59.3859 186.936 59.6109 187.656 59.6109C188.246 59.6109 188.736 59.4759 189.126 59.2059C189.526 58.9259 189.806 58.5559 189.966 58.0959H191.436C191.216 58.8859 190.776 59.5309 190.116 60.0309C189.456 60.5209 188.636 60.7659 187.656 60.7659C186.876 60.7659 186.176 60.5909 185.556 60.2409C184.946 59.8909 184.466 59.3959 184.116 58.7559C183.766 58.1059 183.591 57.3559 183.591 56.5059C183.591 55.6559 183.761 54.9109 184.101 54.2709C184.441 53.6309 184.916 53.1409 185.526 52.8009C186.146 52.4509 186.856 52.2759 187.656 52.2759C188.436 52.2759 189.126 52.4459 189.726 52.7859C190.326 53.1259 190.786 53.5959 191.106 54.1959C191.436 54.7859 191.601 55.4559 191.601 56.2059ZM190.191 55.9209C190.191 55.4009 190.076 54.9559 189.846 54.5859C189.616 54.2059 189.301 53.9209 188.901 53.7309C188.511 53.5309 188.076 53.4309 187.596 53.4309C186.906 53.4309 186.316 53.6509 185.826 54.0909C185.346 54.5309 185.071 55.1409 185.001 55.9209H190.191ZM197.408 52.2609C198.408 52.2609 199.218 52.5659 199.838 53.1759C200.458 53.7759 200.768 54.6459 200.768 55.7859V60.6309H199.418V55.9809C199.418 55.1609 199.213 54.5359 198.803 54.1059C198.393 53.6659 197.833 53.4459 197.123 53.4459C196.403 53.4459 195.828 53.6709 195.398 54.1209C194.978 54.5709 194.768 55.2259 194.768 56.0859V60.6309H193.403V52.4109H194.768V53.5809C195.038 53.1609 195.403 52.8359 195.863 52.6059C196.333 52.3759 196.848 52.2609 197.408 52.2609ZM204.663 53.5359V58.3809C204.663 58.7809 204.748 59.0659 204.918 59.2359C205.088 59.3959 205.383 59.4759 205.803 59.4759H206.808V60.6309H205.578C204.818 60.6309 204.248 60.4559 203.868 60.1059C203.488 59.7559 203.298 59.1809 203.298 58.3809V53.5359H202.233V52.4109H203.298V50.3409H204.663V52.4109H206.808V53.5359H204.663ZM218.641 58.3059H214.081L213.241 60.6309H211.801L215.581 50.2359H217.156L220.921 60.6309H219.481L218.641 58.3059ZM218.251 57.1959L216.361 51.9159L214.471 57.1959H218.251Z" fill="#4F374A"/>
</g>
<g opacity="0.9">
<path d="M167.126 108.236C167.126 109.106 166.826 109.831 166.226 110.411C165.636 110.981 164.731 111.266 163.511 111.266H161.501V115.631H160.136V105.176H163.511C164.691 105.176 165.586 105.461 166.196 106.031C166.816 106.601 167.126 107.336 167.126 108.236ZM163.511 110.141C164.271 110.141 164.831 109.976 165.191 109.646C165.551 109.316 165.731 108.846 165.731 108.236C165.731 106.946 164.991 106.301 163.511 106.301H161.501V110.141H163.511ZM168.313 111.491C168.313 110.651 168.483 109.916 168.823 109.286C169.163 108.646 169.628 108.151 170.218 107.801C170.818 107.451 171.483 107.276 172.213 107.276C172.933 107.276 173.558 107.431 174.088 107.741C174.618 108.051 175.013 108.441 175.273 108.911V107.411H176.653V115.631H175.273V114.101C175.003 114.581 174.598 114.981 174.058 115.301C173.528 115.611 172.908 115.766 172.198 115.766C171.468 115.766 170.808 115.586 170.218 115.226C169.628 114.866 169.163 114.361 168.823 113.711C168.483 113.061 168.313 112.321 168.313 111.491ZM175.273 111.506C175.273 110.886 175.148 110.346 174.898 109.886C174.648 109.426 174.308 109.076 173.878 108.836C173.458 108.586 172.993 108.461 172.483 108.461C171.973 108.461 171.508 108.581 171.088 108.821C170.668 109.061 170.333 109.411 170.083 109.871C169.833 110.331 169.708 110.871 169.708 111.491C169.708 112.121 169.833 112.671 170.083 113.141C170.333 113.601 170.668 113.956 171.088 114.206C171.508 114.446 171.973 114.566 172.483 114.566C172.993 114.566 173.458 114.446 173.878 114.206C174.308 113.956 174.648 113.601 174.898 113.141C175.148 112.671 175.273 112.126 175.273 111.506ZM180.325 108.746C180.565 108.276 180.905 107.911 181.345 107.651C181.795 107.391 182.34 107.261 182.98 107.261V108.671H182.62C181.09 108.671 180.325 109.501 180.325 111.161V115.631H178.96V107.411H180.325V108.746ZM192.055 111.206C192.055 111.466 192.04 111.741 192.01 112.031H185.44C185.49 112.841 185.765 113.476 186.265 113.936C186.775 114.386 187.39 114.611 188.11 114.611C188.7 114.611 189.19 114.476 189.58 114.206C189.98 113.926 190.26 113.556 190.42 113.096H191.89C191.67 113.886 191.23 114.531 190.57 115.031C189.91 115.521 189.09 115.766 188.11 115.766C187.33 115.766 186.63 115.591 186.01 115.241C185.4 114.891 184.92 114.396 184.57 113.756C184.22 113.106 184.045 112.356 184.045 111.506C184.045 110.656 184.215 109.911 184.555 109.271C184.895 108.631 185.37 108.141 185.98 107.801C186.6 107.451 187.31 107.276 188.11 107.276C188.89 107.276 189.58 107.446 190.18 107.786C190.78 108.126 191.24 108.596 191.56 109.196C191.89 109.786 192.055 110.456 192.055 111.206ZM190.645 110.921C190.645 110.401 190.53 109.956 190.3 109.586C190.07 109.206 189.755 108.921 189.355 108.731C188.965 108.531 188.53 108.431 188.05 108.431C187.36 108.431 186.77 108.651 186.28 109.091C185.8 109.531 185.525 110.141 185.455 110.921H190.645ZM197.862 107.261C198.862 107.261 199.672 107.566 200.292 108.176C200.912 108.776 201.222 109.646 201.222 110.786V115.631H199.872V110.981C199.872 110.161 199.667 109.536 199.257 109.106C198.847 108.666 198.287 108.446 197.577 108.446C196.857 108.446 196.282 108.671 195.852 109.121C195.432 109.571 195.222 110.226 195.222 111.086V115.631H193.857V107.411H195.222V108.581C195.492 108.161 195.857 107.836 196.317 107.606C196.787 107.376 197.302 107.261 197.862 107.261ZM205.117 108.536V113.381C205.117 113.781 205.202 114.066 205.372 114.236C205.542 114.396 205.837 114.476 206.257 114.476H207.262V115.631H206.032C205.272 115.631 204.702 115.456 204.322 115.106C203.942 114.756 203.752 114.181 203.752 113.381V108.536H202.687V107.411H203.752V105.341H205.117V107.411H207.262V108.536H205.117ZM218.15 110.246C218.53 110.306 218.875 110.461 219.185 110.711C219.505 110.961 219.755 111.271 219.935 111.641C220.125 112.011 220.22 112.406 220.22 112.826C220.22 113.356 220.085 113.836 219.815 114.266C219.545 114.686 219.15 115.021 218.63 115.271C218.12 115.511 217.515 115.631 216.815 115.631H212.915V105.176H216.665C217.375 105.176 217.98 105.296 218.48 105.536C218.98 105.766 219.355 106.081 219.605 106.481C219.855 106.881 219.98 107.331 219.98 107.831C219.98 108.451 219.81 108.966 219.47 109.376C219.14 109.776 218.7 110.066 218.15 110.246ZM214.28 109.691H216.575C217.215 109.691 217.71 109.541 218.06 109.241C218.41 108.941 218.585 108.526 218.585 107.996C218.585 107.466 218.41 107.051 218.06 106.751C217.71 106.451 217.205 106.301 216.545 106.301H214.28V109.691ZM216.695 114.506C217.375 114.506 217.905 114.346 218.285 114.026C218.665 113.706 218.855 113.261 218.855 112.691C218.855 112.111 218.655 111.656 218.255 111.326C217.855 110.986 217.32 110.816 216.65 110.816H214.28V114.506H216.695Z" fill="#4F374A"/>
<path d="M167.126 108.236C167.126 109.106 166.826 109.831 166.226 110.411C165.636 110.981 164.731 111.266 163.511 111.266H161.501V115.631H160.136V105.176H163.511C164.691 105.176 165.586 105.461 166.196 106.031C166.816 106.601 167.126 107.336 167.126 108.236ZM163.511 110.141C164.271 110.141 164.831 109.976 165.191 109.646C165.551 109.316 165.731 108.846 165.731 108.236C165.731 106.946 164.991 106.301 163.511 106.301H161.501V110.141H163.511ZM168.313 111.491C168.313 110.651 168.483 109.916 168.823 109.286C169.163 108.646 169.628 108.151 170.218 107.801C170.818 107.451 171.483 107.276 172.213 107.276C172.933 107.276 173.558 107.431 174.088 107.741C174.618 108.051 175.013 108.441 175.273 108.911V107.411H176.653V115.631H175.273V114.101C175.003 114.581 174.598 114.981 174.058 115.301C173.528 115.611 172.908 115.766 172.198 115.766C171.468 115.766 170.808 115.586 170.218 115.226C169.628 114.866 169.163 114.361 168.823 113.711C168.483 113.061 168.313 112.321 168.313 111.491ZM175.273 111.506C175.273 110.886 175.148 110.346 174.898 109.886C174.648 109.426 174.308 109.076 173.878 108.836C173.458 108.586 172.993 108.461 172.483 108.461C171.973 108.461 171.508 108.581 171.088 108.821C170.668 109.061 170.333 109.411 170.083 109.871C169.833 110.331 169.708 110.871 169.708 111.491C169.708 112.121 169.833 112.671 170.083 113.141C170.333 113.601 170.668 113.956 171.088 114.206C171.508 114.446 171.973 114.566 172.483 114.566C172.993 114.566 173.458 114.446 173.878 114.206C174.308 113.956 174.648 113.601 174.898 113.141C175.148 112.671 175.273 112.126 175.273 111.506ZM180.325 108.746C180.565 108.276 180.905 107.911 181.345 107.651C181.795 107.391 182.34 107.261 182.98 107.261V108.671H182.62C181.09 108.671 180.325 109.501 180.325 111.161V115.631H178.96V107.411H180.325V108.746ZM192.055 111.206C192.055 111.466 192.04 111.741 192.01 112.031H185.44C185.49 112.841 185.765 113.476 186.265 113.936C186.775 114.386 187.39 114.611 188.11 114.611C188.7 114.611 189.19 114.476 189.58 114.206C189.98 113.926 190.26 113.556 190.42 113.096H191.89C191.67 113.886 191.23 114.531 190.57 115.031C189.91 115.521 189.09 115.766 188.11 115.766C187.33 115.766 186.63 115.591 186.01 115.241C185.4 114.891 184.92 114.396 184.57 113.756C184.22 113.106 184.045 112.356 184.045 111.506C184.045 110.656 184.215 109.911 184.555 109.271C184.895 108.631 185.37 108.141 185.98 107.801C186.6 107.451 187.31 107.276 188.11 107.276C188.89 107.276 189.58 107.446 190.18 107.786C190.78 108.126 191.24 108.596 191.56 109.196C191.89 109.786 192.055 110.456 192.055 111.206ZM190.645 110.921C190.645 110.401 190.53 109.956 190.3 109.586C190.07 109.206 189.755 108.921 189.355 108.731C188.965 108.531 188.53 108.431 188.05 108.431C187.36 108.431 186.77 108.651 186.28 109.091C185.8 109.531 185.525 110.141 185.455 110.921H190.645ZM197.862 107.261C198.862 107.261 199.672 107.566 200.292 108.176C200.912 108.776 201.222 109.646 201.222 110.786V115.631H199.872V110.981C199.872 110.161 199.667 109.536 199.257 109.106C198.847 108.666 198.287 108.446 197.577 108.446C196.857 108.446 196.282 108.671 195.852 109.121C195.432 109.571 195.222 110.226 195.222 111.086V115.631H193.857V107.411H195.222V108.581C195.492 108.161 195.857 107.836 196.317 107.606C196.787 107.376 197.302 107.261 197.862 107.261ZM205.117 108.536V113.381C205.117 113.781 205.202 114.066 205.372 114.236C205.542 114.396 205.837 114.476 206.257 114.476H207.262V115.631H206.032C205.272 115.631 204.702 115.456 204.322 115.106C203.942 114.756 203.752 114.181 203.752 113.381V108.536H202.687V107.411H203.752V105.341H205.117V107.411H207.262V108.536H205.117ZM218.15 110.246C218.53 110.306 218.875 110.461 219.185 110.711C219.505 110.961 219.755 111.271 219.935 111.641C220.125 112.011 220.22 112.406 220.22 112.826C220.22 113.356 220.085 113.836 219.815 114.266C219.545 114.686 219.15 115.021 218.63 115.271C218.12 115.511 217.515 115.631 216.815 115.631H212.915V105.176H216.665C217.375 105.176 217.98 105.296 218.48 105.536C218.98 105.766 219.355 106.081 219.605 106.481C219.855 106.881 219.98 107.331 219.98 107.831C219.98 108.451 219.81 108.966 219.47 109.376C219.14 109.776 218.7 110.066 218.15 110.246ZM214.28 109.691H216.575C217.215 109.691 217.71 109.541 218.06 109.241C218.41 108.941 218.585 108.526 218.585 107.996C218.585 107.466 218.41 107.051 218.06 106.751C217.71 106.451 217.205 106.301 216.545 106.301H214.28V109.691ZM216.695 114.506C217.375 114.506 217.905 114.346 218.285 114.026C218.665 113.706 218.855 113.261 218.855 112.691C218.855 112.111 218.655 111.656 218.255 111.326C217.855 110.986 217.32 110.816 216.65 110.816H214.28V114.506H216.695Z" fill="#4F374A"/>
</g>
</g>
<defs>
<filter id="filter0_f_433_392" x="-189.06" y="-217.56" width="364.796" height="366.91" filterUnits="userSpaceOnUse" color-interpolation-filters="sRGB">
<feFlood flood-opacity="0" result="BackgroundImageFix"/>
<feBlend mode="normal" in="SourceGraphic" in2="BackgroundImageFix" result="shape"/>
<feGaussianBlur stdDeviation="52.5" result="effect1_foregroundBlur_433_392"/>
</filter>
<filter id="filter1_f_433_392" x="167.47" y="78.6309" width="364.796" height="366.91" filterUnits="userSpaceOnUse" color-interpolation-filters="sRGB">
<feFlood flood-opacity="0" result="BackgroundImageFix"/>
<feBlend mode="normal" in="SourceGraphic" in2="BackgroundImageFix" result="shape"/>
<feGaussianBlur stdDeviation="52.5" result="effect1_foregroundBlur_433_392"/>
</filter>
</defs>
</svg>
