<?xml version="1.0" encoding="UTF-8" standalone="no"?>
<!-- Created with Inkscape (http://www.inkscape.org/) -->

<svg
   version="1.1"
   id="svg2"
   viewBox="0 0 205 220"
   sodipodi:docname="logo.svg"
   inkscape:version="1.1.1 (3bf5ae0d25, 2021-09-20)"
   xmlns:inkscape="http://www.inkscape.org/namespaces/inkscape"
   xmlns:sodipodi="http://sodipodi.sourceforge.net/DTD/sodipodi-0.dtd"
   xmlns="http://www.w3.org/2000/svg"
   xmlns:svg="http://www.w3.org/2000/svg">
  <defs
     id="defs6" />
  <sodipodi:namedview
     id="namedview4"
     pagecolor="#ffffff"
     bordercolor="#666666"
     borderopacity="1.0"
     inkscape:pageshadow="2"
     inkscape:pageopacity="0.0"
     inkscape:pagecheckerboard="0"
     showgrid="false"
     inkscape:zoom="2.8284272"
     inkscape:cx="136.47161"
     inkscape:cy="130.99153"
     inkscape:window-width="1920"
     inkscape:window-height="1017"
     inkscape:window-x="1272"
     inkscape:window-y="32"
     inkscape:window-maximized="1"
     inkscape:current-layer="g8" />
  <g
     inkscape:groupmode="layer"
     inkscape:label="Image"
     id="g8"
     style="display:inline;opacity:1">
    <path
       id="path290"
       style="fill:#ffffff;stroke-width:1.67868;fill-opacity:1"
       d="M 103.20898 30.759766 A 84.471451 83.399574 0 0 0 18.738281 114.1582 A 84.471451 83.399574 0 0 0 96.621094 197.13281 C 94.962425 190.63772 95.231748 181.19881 95.998047 178.125 C 98.231166 169.16743 98.795048 166.84717 102.50391 158.70312 C 106.49321 149.94327 110.14473 139.98583 106.48633 129.21484 C 104.04156 123.19641 99.926524 120.68496 98.023438 119.26953 C 98.014475 119.28135 98.026752 119.28646 98.015625 119.29883 C 95.822104 121.73673 89.336823 129.26891 84.71875 131.79688 C 81.407392 133.7322 79.377325 134.77949 76.099609 135.91992 C 75.790905 136.02733 75.381113 136.16765 75.033203 136.21094 C 74.535037 136.27294 74.183871 136.26308 73.818359 136.52539 C 72.950999 136.81091 71.918616 139.4952 71.015625 141.76562 C 70.479931 143.11253 68.28483 145.3646 67.367188 145.50391 C 65.768147 146.57667 63.855473 146.67945 61.847656 146.60742 C 57.311703 146.44469 52.35101 144.24759 50.410156 140.48828 C 47.4976 133.33698 49.284273 127.98062 53.242188 122.16992 C 54.191418 120.77635 55.405004 117.7962 56.222656 116.24023 C 59.318872 108.27244 62.012147 101.66934 65.824219 93.806641 C 68.251059 88.800959 72.28829 84.374909 74.501953 80.421875 C 77.248732 75.516826 74.651344 67.790556 72.113281 59.96875 L 79.509766 63.984375 L 77.044922 54.349609 C 80.365714 56.843459 84.006532 59.071268 87.292969 61.638672 C 90.418962 64.08074 93.224243 66.830447 95.123047 70.40625 C 114.5632 65.832219 142.01538 72.46181 156.66406 87.140625 L 142.7832 85.660156 L 142.7832 86.462891 C 158.9921 93.954202 175.44671 108.12042 181.04492 124.90039 L 168.15039 119.37695 C 168.15039 119.37695 173.30593 123.59969 176.68945 125.98047 C 180.19944 128.45023 183.45996 131.21741 185.17773 133.88672 A 84.471451 83.399574 0 0 0 187.68164 114.1582 A 84.471451 83.399574 0 0 0 103.20898 30.759766 z " />
  </g>
  <g
     inkscape:groupmode="layer"
     id="layer1"
     inkscape:label="1"
     style="display:inline;opacity:1" />
  <g
     inkscape:groupmode="layer"
     id="layer2"
     inkscape:label="2" />
</svg>
