<svg width="199" height="75" viewBox="0 0 199 75" fill="none" xmlns="http://www.w3.org/2000/svg">
<path d="M91.792 26.552C91.792 24.888 92.152 23.408 92.872 22.112C93.592 20.8 94.592 19.784 95.872 19.064C97.168 18.328 98.632 17.96 100.264 17.96C102.264 17.96 103.976 18.488 105.4 19.544C106.824 20.6 107.776 22.04 108.256 23.864H103.744C103.408 23.16 102.928 22.624 102.304 22.256C101.696 21.888 101 21.704 100.216 21.704C98.952 21.704 97.928 22.144 97.144 23.024C96.36 23.904 95.968 25.08 95.968 26.552C95.968 28.024 96.36 29.2 97.144 30.08C97.928 30.96 98.952 31.4 100.216 31.4C101 31.4 101.696 31.216 102.304 30.848C102.928 30.48 103.408 29.944 103.744 29.24H108.256C107.776 31.064 106.824 32.504 105.4 33.56C103.976 34.6 102.264 35.12 100.264 35.12C98.632 35.12 97.168 34.76 95.872 34.04C94.592 33.304 93.592 32.288 92.872 30.992C92.152 29.696 91.792 28.216 91.792 26.552ZM121.281 35L117.777 28.64H116.793V35H112.689V18.152H119.577C120.905 18.152 122.033 18.384 122.961 18.848C123.905 19.312 124.609 19.952 125.073 20.768C125.537 21.568 125.769 22.464 125.769 23.456C125.769 24.576 125.449 25.576 124.809 26.456C124.185 27.336 123.257 27.96 122.025 28.328L125.913 35H121.281ZM116.793 25.736H119.337C120.089 25.736 120.649 25.552 121.017 25.184C121.401 24.816 121.593 24.296 121.593 23.624C121.593 22.984 121.401 22.48 121.017 22.112C120.649 21.744 120.089 21.56 119.337 21.56H116.793V25.736ZM144.714 18.152L138.882 29.432V35H134.778V29.432L128.946 18.152H133.602L136.866 25.208L140.106 18.152H144.714ZM161.127 23.576C161.127 24.552 160.903 25.448 160.455 26.264C160.007 27.064 159.319 27.712 158.391 28.208C157.463 28.704 156.311 28.952 154.935 28.952H152.391V35H148.287V18.152H154.935C156.279 18.152 157.415 18.384 158.343 18.848C159.271 19.312 159.967 19.952 160.431 20.768C160.895 21.584 161.127 22.52 161.127 23.576ZM154.623 25.688C155.407 25.688 155.991 25.504 156.375 25.136C156.759 24.768 156.951 24.248 156.951 23.576C156.951 22.904 156.759 22.384 156.375 22.016C155.991 21.648 155.407 21.464 154.623 21.464H152.391V25.688H154.623ZM177.304 18.152V21.44H172.84V35H168.736V21.44H164.272V18.152H177.304ZM189.251 35.168C187.667 35.168 186.211 34.8 184.883 34.064C183.571 33.328 182.523 32.304 181.739 30.992C180.971 29.664 180.587 28.176 180.587 26.528C180.587 24.88 180.971 23.4 181.739 22.088C182.523 20.776 183.571 19.752 184.883 19.016C186.211 18.28 187.667 17.912 189.251 17.912C190.835 17.912 192.283 18.28 193.595 19.016C194.923 19.752 195.963 20.776 196.715 22.088C197.483 23.4 197.867 24.88 197.867 26.528C197.867 28.176 197.483 29.664 196.715 30.992C195.947 32.304 194.907 33.328 193.595 34.064C192.283 34.8 190.835 35.168 189.251 35.168ZM189.251 31.424C190.595 31.424 191.667 30.976 192.467 30.08C193.283 29.184 193.691 28 193.691 26.528C193.691 25.04 193.283 23.856 192.467 22.976C191.667 22.08 190.595 21.632 189.251 21.632C187.891 21.632 186.803 22.072 185.987 22.952C185.187 23.832 184.787 25.024 184.787 26.528C184.787 28.016 185.187 29.208 185.987 30.104C186.803 30.984 187.891 31.424 189.251 31.424ZM107.08 47.152V64H102.976V57.064H96.592V64H92.488V47.152H96.592V53.752H102.976V47.152H107.08ZM119.931 64.168C118.347 64.168 116.891 63.8 115.563 63.064C114.251 62.328 113.203 61.304 112.419 59.992C111.651 58.664 111.267 57.176 111.267 55.528C111.267 53.88 111.651 52.4 112.419 51.088C113.203 49.776 114.251 48.752 115.563 48.016C116.891 47.28 118.347 46.912 119.931 46.912C121.515 46.912 122.963 47.28 124.275 48.016C125.603 48.752 126.643 49.776 127.395 51.088C128.163 52.4 128.547 53.88 128.547 55.528C128.547 57.176 128.163 58.664 127.395 59.992C126.627 61.304 125.587 62.328 124.275 63.064C122.963 63.8 121.515 64.168 119.931 64.168ZM119.931 60.424C121.275 60.424 122.347 59.976 123.147 59.08C123.963 58.184 124.371 57 124.371 55.528C124.371 54.04 123.963 52.856 123.147 51.976C122.347 51.08 121.275 50.632 119.931 50.632C118.571 50.632 117.483 51.072 116.667 51.952C115.867 52.832 115.467 54.024 115.467 55.528C115.467 57.016 115.867 58.208 116.667 59.104C117.483 59.984 118.571 60.424 119.931 60.424ZM141.342 64L137.838 57.64H136.854V64H132.75V47.152H139.638C140.966 47.152 142.094 47.384 143.022 47.848C143.966 48.312 144.67 48.952 145.134 49.768C145.598 50.568 145.83 51.464 145.83 52.456C145.83 53.576 145.51 54.576 144.87 55.456C144.246 56.336 143.318 56.96 142.086 57.328L145.974 64H141.342ZM136.854 54.736H139.398C140.15 54.736 140.71 54.552 141.078 54.184C141.462 53.816 141.654 53.296 141.654 52.624C141.654 51.984 141.462 51.48 141.078 51.112C140.71 50.744 140.15 50.56 139.398 50.56H136.854V54.736ZM156.422 64.168C155.19 64.168 154.086 63.968 153.11 63.568C152.134 63.168 151.35 62.576 150.758 61.792C150.182 61.008 149.878 60.064 149.846 58.96H154.214C154.278 59.584 154.494 60.064 154.862 60.4C155.23 60.72 155.71 60.88 156.302 60.88C156.91 60.88 157.39 60.744 157.742 60.472C158.094 60.184 158.27 59.792 158.27 59.296C158.27 58.88 158.126 58.536 157.838 58.264C157.566 57.992 157.222 57.768 156.806 57.592C156.406 57.416 155.83 57.216 155.078 56.992C153.99 56.656 153.102 56.32 152.414 55.984C151.726 55.648 151.134 55.152 150.638 54.496C150.142 53.84 149.894 52.984 149.894 51.928C149.894 50.36 150.462 49.136 151.598 48.256C152.734 47.36 154.214 46.912 156.038 46.912C157.894 46.912 159.39 47.36 160.526 48.256C161.662 49.136 162.27 50.368 162.35 51.952H157.91C157.878 51.408 157.678 50.984 157.31 50.68C156.942 50.36 156.47 50.2 155.894 50.2C155.398 50.2 154.998 50.336 154.694 50.608C154.39 50.864 154.238 51.24 154.238 51.736C154.238 52.28 154.494 52.704 155.006 53.008C155.518 53.312 156.318 53.64 157.406 53.992C158.494 54.36 159.374 54.712 160.046 55.048C160.734 55.384 161.326 55.872 161.822 56.512C162.318 57.152 162.566 57.976 162.566 58.984C162.566 59.944 162.318 60.816 161.822 61.6C161.342 62.384 160.638 63.008 159.71 63.472C158.782 63.936 157.686 64.168 156.422 64.168ZM171.116 50.44V53.848H176.612V57.016H171.116V60.712H177.332V64H167.012V47.152H177.332V50.44H171.116ZM188.012 64.168C186.78 64.168 185.676 63.968 184.7 63.568C183.724 63.168 182.94 62.576 182.348 61.792C181.772 61.008 181.468 60.064 181.436 58.96H185.804C185.868 59.584 186.084 60.064 186.452 60.4C186.82 60.72 187.3 60.88 187.892 60.88C188.5 60.88 188.98 60.744 189.332 60.472C189.684 60.184 189.86 59.792 189.86 59.296C189.86 58.88 189.716 58.536 189.428 58.264C189.156 57.992 188.812 57.768 188.396 57.592C187.996 57.416 187.42 57.216 186.668 56.992C185.58 56.656 184.692 56.32 184.004 55.984C183.316 55.648 182.724 55.152 182.228 54.496C181.732 53.84 181.484 52.984 181.484 51.928C181.484 50.36 182.052 49.136 183.188 48.256C184.324 47.36 185.804 46.912 187.628 46.912C189.484 46.912 190.98 47.36 192.116 48.256C193.252 49.136 193.86 50.368 193.94 51.952H189.5C189.468 51.408 189.268 50.984 188.9 50.68C188.532 50.36 188.06 50.2 187.484 50.2C186.988 50.2 186.588 50.336 186.284 50.608C185.98 50.864 185.828 51.24 185.828 51.736C185.828 52.28 186.084 52.704 186.596 53.008C187.108 53.312 187.908 53.64 188.996 53.992C190.084 54.36 190.964 54.712 191.636 55.048C192.324 55.384 192.916 55.872 193.412 56.512C193.908 57.152 194.156 57.976 194.156 58.984C194.156 59.944 193.908 60.816 193.412 61.6C192.932 62.384 192.228 63.008 191.3 63.472C190.372 63.936 189.276 64.168 188.012 64.168Z" fill="white"/>
<path d="M37.0847 3.80554e-09C27.2493 8.77169e-05 17.8167 3.91414 10.862 10.8811C3.90731 17.8481 0.000134441 27.2974 0 37.1502C0.0191018 46.4884 3.54804 55.477 9.88424 62.3263C16.2204 69.1756 24.8991 73.3833 34.1925 74.1116C33.4643 71.2184 33.5825 67.0138 33.9189 65.6445C34.8993 61.6543 35.1469 60.6208 36.7752 56.9929C38.5266 53.0908 40.1297 48.6552 38.5235 43.8573C37.4502 41.1763 35.6436 40.0576 34.8081 39.4271C34.8042 39.4323 34.8096 39.4346 34.8047 39.4401C33.8417 40.5261 30.9945 43.8813 28.967 45.0074C27.5133 45.8695 26.622 46.3361 25.183 46.8441C25.0475 46.8919 24.8676 46.9544 24.7148 46.9737C24.4961 47.0013 24.342 46.9969 24.1815 47.1138C23.8007 47.241 23.3475 48.4367 22.951 49.4481C22.7158 50.048 21.7521 51.0512 21.3493 51.1133C20.6473 51.5912 19.8075 51.6369 18.9261 51.6049C16.9347 51.5324 14.7568 50.5537 13.9047 48.8791C12.626 45.6935 13.4104 43.3075 15.1481 40.7191C15.5648 40.0983 16.0976 38.7708 16.4566 38.0777C17.8159 34.5284 18.9983 31.587 20.6719 28.0845C21.7373 25.8547 23.5098 23.8831 24.4816 22.1222C25.6875 19.9372 24.5472 16.4955 23.4329 13.0113L26.6802 14.8001L25.598 10.5082C27.0559 11.6191 28.6544 12.6115 30.0972 13.7551C31.4696 14.843 32.7012 16.0678 33.5348 17.6607C42.0695 15.6232 54.1217 18.5764 60.5528 25.1151L54.4587 24.4556V24.8132C61.5749 28.1502 68.7988 34.4607 71.2566 41.9354L65.5956 39.4749C65.5956 39.4749 67.859 41.356 69.3444 42.4165C70.8854 43.5167 72.3168 44.7493 73.071 45.9384C73.7859 43.0634 74.155 40.113 74.1703 37.1502C74.1702 32.2715 73.2109 27.4406 71.3471 22.9333C69.4834 18.426 66.7516 14.3305 63.3079 10.8808C59.8642 7.43111 55.776 4.69466 51.2766 2.82773C46.7772 0.960793 41.9548 -6.98232e-05 37.0847 3.80554e-09Z" fill="white"/>
</svg>
